<?xml version="1.0" encoding="utf-8"?>
<!-- Generator: Adobe Illustrator 26.0.1, SVG Export Plug-In . SVG Version: 6.00 Build 0)  -->
<svg version="1.1" id="Layer_1" xmlns="http://www.w3.org/2000/svg" xmlns:xlink="http://www.w3.org/1999/xlink" x="0px" y="0px"
	 viewBox="0 0 100 100" style="enable-background:new 0 0 100 100;" xml:space="preserve">
<style type="text/css">
	.st0{fill:#50C3F0;}
	.st1{fill:#5ECAEA;}
	.st2{fill:#E0F2F7;}
</style>
<g>
	<path class="st0" d="M50.4,41.4c0,0-2.9,3.6-19.1,9.3l-3.6,1.4c0,0,0.6,1.5-6,3.4c0,0,11.6,1.2,24-5.5c0,0,0.5,1.5-1.7,1.9
		c0,0-1.5,1.7-3,2.1c-1.5,0.5-3.5,1.3-3.5,1.3s6.5-0.8,5.4,0.5c0,0,6.8-3,6.4-1.7c0,0,10.4-2.9,15.1-6.9c0,0-0.7-0.2-2.3-0.1
		l10.2-4.9l-15.5,5.6l5.2,0.1c0,0-3.7,5.2-14.4,3.8c0,0,2.6-0.9,5.4-5.8c0,0-5.7,3.1-7.6,2.9c0,0-3.1,4.4-11,4
		C34.6,52.8,44.5,47,50.4,41.4z"/>
	<g>
		<path class="st1" d="M34.5,53.2l-1.4-0.1l1.2-0.7c0.1,0,5.2-3.1,10.3-6.9c-2.9,1.5-7.1,3.3-13.2,5.5l-3.3,1.3c0,0.1,0,0.2-0.1,0.3
			c-0.4,0.8-1.7,1.6-3.9,2.4c2.6,0,7.1-0.3,12.4-1.8C35.9,53.3,35.3,53.3,34.5,53.2z"/>
	</g>
	<g>
		<polygon class="st1" points="59.2,47.4 60.5,47.4 64.9,45.4 		"/>
	</g>
	<g>
		<path class="st1" d="M46.1,49.3l0.2,0.5c0,0.1,0.2,0.7-0.2,1.3c-0.3,0.5-0.9,0.9-1.7,1.1c-0.4,0.4-1.7,1.7-3.1,2.2
			c-0.2,0.1-0.5,0.2-0.8,0.3c1.4,0,2.6,0.1,2.9,0.5c3.6-1.5,5.7-2.1,6.2-1.6c0,0,0,0,0,0c0.7-0.2,2.3-0.7,4.2-1.4
			c-1.8,0.2-3.8,0.2-6.3-0.1l-1.8-0.2l1.7-0.6c0,0,2-0.8,4.4-4.3c-1.8,0.9-4.7,2.2-6.2,2.2c-0.1,0.1-0.2,0.2-0.3,0.4
			c0,0,0.1,0,0.1-0.1L46.1,49.3z"/>
	</g>
	<path class="st2" d="M32.6,53.3l2.4-1.4c0,0,2.9-1.7,6.5-4.1c-2.6,1.1-5.6,2.3-9,3.5l-3.1,1.2c0,0.1,0,0.1-0.1,0.2
		c-0.3,0.6-1,1.2-2,1.8c1.9-0.1,4.3-0.4,7-1L32.6,53.3z"/>
	<path class="st2" d="M49.4,53.3c0.3-0.1,0.7-0.2,1.1-0.4c-1.1,0-2.2-0.1-3.3-0.2L45,52.4c-0.3,0.1-0.6,0.3-0.9,0.4
		c-0.4,0.4-1.2,1.2-2.1,1.7c0.6,0.1,0.9,0.2,1.1,0.4C47.4,53,48.8,53,49.4,53.3z"/>
	<path class="st2" d="M48.3,50.5c0,0,1.4-0.6,3.1-2.9c-1.4,0.7-2.9,1.4-4,1.7l0,0.1c0.1,0.1,0.3,0.8,0,1.6L48.3,50.5z"/>
	<path class="st0" d="M55.6,52c4-1.3,0.9,2-4.6,2.6c0,0,3.3,0.7,10.2-3.9c0,0-2.3,1.5-3.6,1.7c-1.3,0.3,2.2-2.3,2.2-2.3L55.6,52z"/>
	<path class="st0" d="M55.7,51.4c-2.5,0.1-6.2-0.6-4.9-2.2c1.3-1.6-0.5,0.2-0.5,0.2s-1.8,1.6-0.7,1c1-0.5,1.7,0.6,1.7,0.6
		s3.4,0.3,2.3,0.7c-1.1,0.4,1.6,0.2,1.6,0.2L55.7,51.4z"/>
	<path class="st0" d="M59.3,50.2c2.5-1.4,1.3-2.3,0.3-2.3c-1,0,2-0.3,2-0.3s-0.2,0.2-0.7,0.3c-0.5,0.1-0.1,0.7,0.2,0.9
		c0,0-0.8,0.7-0.5,0.7c0.3,0-0.3,0.3-0.3,0.3L59.3,50.2z"/>
	<path class="st0" d="M43.4,47c-3.2,2.2-5.5,5.6-4,5.4c1.5-0.2-0.2,0.1-0.2,0.1s-2.8,0.5-1.5,0.2c1.3-0.4,1.6-1.8,1.6-1.8
		s2.2-2.4,1.5-2C40.1,49.2,43.4,47,43.4,47z"/>
	<path class="st0" d="M29.1,55.2c4.4-0.5,2,0.9,2,0.9s3.6,0.2,5.4-0.3c0,0-4.1,0.4-4.5-0.3c-0.4-0.6,1.2-1,1.2-1L29.1,55.2z"/>
	<path class="st0" d="M35.8,49c2.3-0.9,3.2-2.7,3.2-2.7l8.3-3.3c0,0-8,3.5-8.4,3.8c-0.4,0.4-1.4,1.6-0.7,1.3
		c0.7-0.3,0.2,0.1,0.2,0.1L35.8,49z"/>
	<path class="st0" d="M65.3,44.8c1.1-0.4,1.4-1.5,1.4-1.5L78,39.1c0,0-11.2,4.4-11.4,4.7c-0.2,0.3-0.4,0.6,0,0.5
		c0.3-0.1,0.2,0.2,0.2,0.2L65.3,44.8z"/>
</g>
</svg>
